<?xml version="1.0" standalone="no"?>
<!DOCTYPE svg PUBLIC "-//W3C//DTD SVG 20010904//EN"
 "http://www.w3.org/TR/2001/REC-SVG-20010904/DTD/svg10.dtd">
<svg version="1.0" xmlns="http://www.w3.org/2000/svg"
 width="512.000000pt" height="512.000000pt" viewBox="0 0 512.000000 512.000000"
 preserveAspectRatio="xMidYMid meet">

<g transform="translate(0.000000,512.000000) scale(0.100000,-0.100000)"
fill="#ADB2C4" stroke="none">
<path d="M3245 4965 c-277 -44 -521 -146 -740 -308 -51 -39 -466 -445 -1158
-1136 -961 -959 -1086 -1087 -1144 -1174 -181 -270 -244 -598 -174 -907 97
-429 421 -764 850 -877 129 -34 352 -43 490 -19 177 31 356 109 500 217 45 33
480 462 1052 1035 1073 1077 1014 1010 1070 1194 30 97 33 271 5 370 -85 306
-363 520 -675 520 -120 0 -210 -22 -321 -76 l-95 -46 -648 -647 c-450 -449
-654 -659 -668 -688 -74 -153 43 -333 216 -333 89 1 97 7 755 665 451 450 636
629 664 640 155 64 326 -51 326 -220 0 -94 12 -80 -1006 -1095 -1028 -1025
-1006 -1005 -1154 -1051 -196 -61 -380 -43 -563 53 -77 41 -222 182 -265 258
-54 97 -84 203 -89 320 -6 136 12 226 73 350 l46 95 1057 1058 c581 582 1089
1083 1129 1113 203 154 442 235 696 235 67 0 150 -4 186 -10 419 -68 758 -342
913 -736 49 -124 67 -217 74 -375 10 -255 -51 -473 -195 -695 -34 -53 -299
-324 -1098 -1125 -816 -817 -1057 -1065 -1073 -1100 -89 -197 111 -398 309
-309 35 15 273 248 1086 1062 642 643 1064 1073 1101 1122 313 416 415 920
288 1415 -147 575 -606 1027 -1190 1174 -178 45 -457 59 -630 31z"/>
</g>
</svg>
