<?xml version="1.0" standalone="no"?>
<!DOCTYPE svg PUBLIC "-//W3C//DTD SVG 20010904//EN"
 "http://www.w3.org/TR/2001/REC-SVG-20010904/DTD/svg10.dtd">
<svg version="1.0" xmlns="http://www.w3.org/2000/svg"
 width="512.000000pt" height="512.000000pt" viewBox="0 0 512.000000 512.000000"
 preserveAspectRatio="xMidYMid meet">

<g transform="translate(0.000000,512.000000) scale(0.100000,-0.100000)"
fill="#ADB2C4" stroke="none">
<path d="M1650 4949 c-29 -12 -67 -45 -83 -74 -7 -12 -14 -86 -17 -180 l-5
-160 -315 -6 c-256 -5 -326 -9 -374 -23 -287 -85 -499 -305 -566 -590 -20 -82
-20 -117 -18 -1598 l3 -1513 33 -95 c75 -216 218 -377 417 -471 172 -80 11
-74 1835 -74 l1625 0 79 23 c158 46 317 150 411 270 55 70 115 183 147 277
l23 70 3 1513 c2 1474 2 1516 -17 1596 -71 299 -296 525 -594 596 -66 16 -118
20 -264 20 l-182 0 -3 -312 c-3 -295 -4 -315 -24 -348 -43 -74 -132 -101 -210
-64 l-34 16 23 32 c22 31 22 32 25 512 l3 480 -23 34 c-53 77 -139 101 -212
58 -71 -41 -81 -70 -84 -250 l-4 -158 -583 0 -584 0 -3 -319 c-3 -306 -4 -321
-24 -348 -35 -46 -82 -73 -131 -73 -38 0 -103 22 -103 35 0 2 10 21 23 42 22
38 22 39 22 508 l0 470 -24 38 c-39 64 -124 93 -191 66z m2880 -2988 c0 -1044
-1 -1081 -20 -1142 -50 -162 -176 -279 -346 -324 -51 -13 -259 -15 -1604 -15
-1345 0 -1553 2 -1604 15 -170 45 -296 162 -346 324 -19 61 -20 98 -20 1142
l0 1079 1970 0 1970 0 0 -1079z"/>
<path d="M1620 2434 c-167 -72 -165 -318 2 -389 137 -57 297 46 298 193 1 150
-161 256 -300 196z"/>
<path d="M2460 2428 c-25 -14 -58 -44 -75 -67 -27 -39 -30 -50 -30 -120 0 -68
3 -82 27 -117 15 -21 44 -50 65 -64 31 -21 48 -25 113 -25 65 0 82 4 113 25
21 14 50 43 65 64 24 35 27 49 27 116 0 67 -3 81 -27 116 -44 62 -90 88 -167
92 -55 3 -74 -1 -111 -20z"/>
<path d="M3325 2433 c-165 -87 -166 -300 -1 -385 59 -30 151 -22 208 18 138
96 118 305 -34 369 -48 19 -134 19 -173 -2z"/>
<path d="M1611 1574 c-132 -66 -157 -229 -51 -334 105 -106 268 -81 334 51 43
88 30 176 -39 244 -68 69 -156 82 -244 39z"/>
<path d="M2480 1584 c-107 -46 -159 -174 -115 -282 64 -152 273 -172 369 -34
40 57 48 149 18 208 -54 104 -172 151 -272 108z"/>
<path d="M3342 1589 c-19 -6 -53 -30 -77 -53 -70 -70 -83 -155 -39 -245 67
-134 244 -158 342 -45 146 165 -11 404 -226 343z"/>
</g>
</svg>
