<?xml version="1.0" standalone="no"?>
<!DOCTYPE svg PUBLIC "-//W3C//DTD SVG 20010904//EN"
 "http://www.w3.org/TR/2001/REC-SVG-20010904/DTD/svg10.dtd">
<svg version="1.0" xmlns="http://www.w3.org/2000/svg"
 width="512.000000pt" height="512.000000pt" viewBox="0 0 512.000000 512.000000"
 preserveAspectRatio="xMidYMid meet">

<g transform="translate(0.000000,512.000000) scale(0.100000,-0.100000)"
fill="#ffba78" stroke="none">
<path d="M2055 5106 c-84 -21 -147 -57 -211 -121 -100 -99 -134 -196 -134
-380 l0 -105 -345 0 c-214 0 -364 -4 -397 -11 -86 -18 -158 -58 -224 -123
-101 -101 -134 -197 -134 -387 0 -132 17 -177 80 -209 39 -20 55 -20 1870 -20
1815 0 1831 0 1870 20 63 32 80 77 80 209 0 190 -33 286 -134 387 -66 66 -144
108 -227 124 -29 6 -206 10 -395 10 l-344 0 0 105 c0 182 -35 280 -135 381
-65 65 -136 105 -223 123 -77 16 -930 14 -997 -3z m975 -306 c62 -31 80 -77
80 -200 l0 -100 -550 0 -550 0 0 103 c1 120 15 157 76 193 l39 24 433 0 c414
0 435 -1 472 -20z"/>
<path d="M956 1983 c67 -808 128 -1499 134 -1537 19 -106 76 -211 160 -290 72
-68 125 -99 220 -132 53 -18 101 -19 1090 -19 989 0 1037 1 1090 19 97 33 153
67 223 134 81 79 139 184 157 288 6 38 67 729 134 1537 l122 1467 -1726 0
-1726 0 122 -1467z m724 947 c77 -39 69 19 155 -1124 l77 -1030 -21 -42 c-36
-76 -123 -104 -201 -64 -77 39 -69 -19 -155 1124 l-77 1030 21 42 c36 76 123
104 201 64z m950 0 c26 -13 47 -34 60 -60 20 -39 20 -57 20 -1070 0 -1013 0
-1031 -20 -1070 -23 -45 -80 -80 -130 -80 -50 0 -107 35 -130 80 -20 39 -20
57 -20 1070 0 1013 0 1031 20 1070 37 73 124 99 200 60z m951 0 c27 -14 46
-34 60 -63 l21 -43 -76 -1025 c-67 -894 -79 -1029 -96 -1066 -50 -108 -209
-108 -261 1 l-21 42 77 1030 c85 1139 78 1084 153 1123 48 26 93 26 143 1z"/>
</g>
</svg>
