<?xml version="1.0" standalone="no"?>
<!DOCTYPE svg PUBLIC "-//W3C//DTD SVG 20010904//EN"
 "http://www.w3.org/TR/2001/REC-SVG-20010904/DTD/svg10.dtd">
<svg version="1.0" xmlns="http://www.w3.org/2000/svg"
 width="512.000000pt" height="512.000000pt" viewBox="0 0 512.000000 512.000000"
 preserveAspectRatio="xMidYMid meet">

<g transform="translate(0.000000,512.000000) scale(0.100000,-0.100000)"
fill="#ADB2C4" stroke="none">
<path d="M521 4944 c-169 -45 -301 -180 -346 -351 -22 -85 -22 -942 0 -1028
45 -172 179 -305 352 -350 85 -22 1661 -22 1746 0 173 45 307 178 352 350 22
87 22 943 0 1030 -45 172 -179 305 -352 350 -84 22 -1670 21 -1752 -1z m1725
-330 c15 -11 37 -33 48 -48 21 -27 21 -38 21 -486 0 -448 0 -459 -21 -486 -11
-15 -33 -37 -48 -48 -27 -21 -35 -21 -846 -21 -811 0 -819 0 -846 21 -15 11
-37 33 -48 48 -20 27 -21 41 -24 459 -2 238 0 446 3 464 7 40 49 91 90 109 24
11 181 13 837 11 797 -2 807 -2 834 -23z"/>
<path d="M3401 4944 c-169 -45 -301 -180 -346 -351 -23 -87 -22 -1900 0 -1988
45 -172 179 -305 352 -350 85 -22 1101 -22 1186 0 173 45 307 178 352 350 22
88 23 1901 0 1988 -45 173 -178 307 -350 352 -85 22 -1112 21 -1194 -1z m1165
-330 c15 -11 37 -33 48 -48 21 -27 21 -34 21 -966 0 -932 0 -939 -21 -966 -11
-15 -33 -37 -48 -48 -27 -21 -38 -21 -566 -21 -528 0 -539 0 -566 21 -15 11
-37 33 -48 48 -21 27 -21 36 -24 939 -1 502 0 926 3 944 7 40 49 91 90 109 24
11 134 13 557 11 514 -2 527 -2 554 -23z"/>
<path d="M521 2864 c-169 -45 -301 -180 -346 -351 -23 -87 -22 -1900 0 -1988
45 -172 179 -305 352 -350 86 -22 1740 -22 1826 0 173 45 307 178 352 350 23
89 23 1901 0 1990 -45 172 -179 305 -352 350 -84 22 -1750 21 -1832 -1z m1805
-330 c15 -11 37 -33 48 -48 21 -27 21 -34 21 -966 0 -932 0 -939 -21 -966 -11
-15 -33 -37 -48 -48 -27 -21 -34 -21 -886 -21 -852 0 -859 0 -886 21 -15 11
-37 33 -48 48 -21 27 -21 36 -24 939 -1 502 0 926 3 944 7 40 49 91 90 109 24
11 188 13 877 11 838 -2 847 -2 874 -23z"/>
<path d="M975 2066 c-67 -29 -105 -105 -90 -183 6 -32 33 -65 168 -200 l161
-163 -161 -162 c-173 -175 -184 -192 -168 -275 9 -49 69 -109 118 -118 83 -16
100 -5 275 168 l162 161 163 -161 c174 -173 191 -184 274 -168 49 9 109 69
118 118 16 83 5 100 -168 275 l-161 162 161 163 c173 174 184 191 168 274 -9
49 -69 109 -118 118 -83 16 -100 5 -275 -168 l-162 -161 -158 156 c-86 86
-170 162 -185 168 -38 14 -85 12 -122 -4z"/>
<path d="M3401 1904 c-169 -45 -301 -180 -346 -351 -22 -85 -22 -942 0 -1028
45 -172 179 -305 352 -350 86 -22 1102 -22 1188 0 172 45 305 179 350 352 22
84 22 942 0 1026 -45 173 -178 307 -350 352 -85 22 -1112 21 -1194 -1z m1165
-330 c15 -11 37 -33 48 -48 21 -27 21 -38 21 -486 0 -448 0 -459 -21 -486 -11
-15 -33 -37 -48 -48 -27 -21 -38 -21 -566 -21 -528 0 -539 0 -566 21 -15 11
-37 33 -48 48 -20 27 -21 41 -24 459 -2 238 0 446 3 464 7 40 49 91 90 109 24
11 134 13 557 11 514 -2 527 -2 554 -23z"/>
</g>
</svg>
