<?xml version="1.0" standalone="no"?>
<!DOCTYPE svg PUBLIC "-//W3C//DTD SVG 20010904//EN"
 "http://www.w3.org/TR/2001/REC-SVG-20010904/DTD/svg10.dtd">
<svg version="1.0" xmlns="http://www.w3.org/2000/svg"
 width="512.000000pt" height="512.000000pt" viewBox="0 0 512.000000 512.000000"
 preserveAspectRatio="xMidYMid meet">

<g transform="translate(0.000000,512.000000) scale(0.100000,-0.100000)"
fill="#ADB2C4" stroke="none">
<path d="M2486 4465 c-124 -44 -176 -209 -100 -318 113 -160 366 -96 382 98
13 160 -132 274 -282 220z"/>
<path d="M2513 3621 c-165 -41 -219 -251 -93 -365 144 -130 364 -16 348 179
-10 123 -136 215 -255 186z"/>
<path d="M1105 3293 c-45 -13 -77 -42 -333 -296 -155 -155 -295 -300 -310
-321 -24 -34 -27 -49 -27 -116 0 -67 3 -82 27 -116 15 -21 155 -166 310 -321
273 -272 285 -282 341 -298 84 -24 145 -8 207 55 63 62 79 123 55 206 -14 49
-29 70 -117 160 l-101 104 299 0 c336 0 349 3 411 73 69 79 69 195 0 274 -62
70 -75 73 -411 73 l-299 0 101 104 c88 90 103 111 117 160 14 49 15 65 4 108
-16 69 -84 139 -151 156 -57 15 -60 14 -123 -5z"/>
<path d="M3886 3298 c-60 -17 -130 -91 -145 -156 -11 -43 -10 -59 4 -108 14
-49 29 -70 117 -160 l101 -104 -299 0 c-336 0 -349 -3 -411 -73 -69 -79 -69
-195 0 -274 62 -70 75 -73 411 -73 l299 0 -101 -104 c-88 -90 -103 -111 -117
-160 -24 -83 -8 -144 55 -206 62 -63 123 -79 207 -55 56 16 68 26 341 298 155
155 295 299 309 320 32 46 42 134 23 193 -10 30 -79 105 -303 332 -186 186
-306 299 -332 312 -52 25 -110 32 -159 18z"/>
<path d="M2474 2756 c-43 -19 -101 -82 -115 -123 -30 -92 7 -198 88 -253 31
-21 48 -25 113 -25 65 0 82 4 113 25 21 14 50 43 65 64 24 35 27 49 27 116 0
67 -3 81 -27 116 -44 63 -90 88 -167 91 -41 2 -78 -2 -97 -11z"/>
<path d="M2486 1905 c-124 -44 -176 -209 -100 -318 113 -160 366 -96 382 98
13 160 -132 274 -282 220z"/>
<path d="M2513 1061 c-165 -41 -219 -251 -93 -365 144 -130 364 -16 348 179
-10 123 -136 215 -255 186z"/>
</g>
</svg>
