<?xml version="1.0" standalone="no"?>
<!DOCTYPE svg PUBLIC "-//W3C//DTD SVG 20010904//EN"
 "http://www.w3.org/TR/2001/REC-SVG-20010904/DTD/svg10.dtd">
<svg version="1.0" xmlns="http://www.w3.org/2000/svg"
 width="512.000000pt" height="512.000000pt" viewBox="0 0 512.000000 512.000000"
 preserveAspectRatio="xMidYMid meet">

<g transform="translate(0.000000,512.000000) scale(0.100000,-0.100000)"
fill="#7b72c1" stroke="none">
<path d="M895 4306 c-94 -41 -122 -160 -59 -244 43 -55 72 -62 268 -62 l175 0
3 -428 3 -429 29 -37 c68 -90 190 -86 260 8 20 27 21 41 24 456 l3 429 189 3
c172 3 191 5 216 24 44 32 66 68 71 116 7 58 -15 108 -63 144 l-37 29 -526 2
c-422 2 -532 0 -556 -11z"/>
<path d="M2815 4306 c-66 -29 -105 -106 -91 -179 9 -47 60 -104 104 -117 25
-8 299 -10 874 -8 827 3 837 3 864 24 44 32 66 68 71 116 7 58 -15 108 -63
144 l-37 29 -846 2 c-688 2 -852 0 -876 -11z"/>
<path d="M2815 3506 c-66 -29 -105 -106 -91 -179 9 -47 60 -104 104 -117 25
-8 299 -10 874 -8 827 3 837 3 864 24 44 32 66 68 71 116 7 58 -15 108 -63
144 l-37 29 -846 2 c-688 2 -852 0 -876 -11z"/>
<path d="M575 2706 c-66 -29 -105 -106 -91 -179 9 -47 60 -104 104 -117 26 -8
627 -10 1994 -8 l1957 3 27 21 c44 32 66 68 71 116 7 58 -15 108 -63 144 l-37
29 -1966 2 c-1619 2 -1971 0 -1996 -11z"/>
<path d="M575 1906 c-66 -29 -105 -106 -91 -179 9 -47 60 -104 104 -117 26 -8
627 -10 1994 -8 l1957 3 27 21 c44 32 66 68 71 116 7 58 -15 108 -63 144 l-37
29 -1966 2 c-1619 2 -1971 0 -1996 -11z"/>
<path d="M575 1106 c-66 -29 -105 -106 -91 -179 9 -47 60 -104 104 -117 26 -8
627 -10 1994 -8 l1957 3 27 21 c44 32 66 68 71 116 7 58 -15 108 -63 144 l-37
29 -1966 2 c-1619 2 -1971 0 -1996 -11z"/>
</g>
</svg>
