<svg xmlns="http://www.w3.org/2000/svg" xmlns:xlink="http://www.w3.org/1999/xlink" width="500" zoomAndPan="magnify"
     viewBox="0 0 375 374.999991" height="500" preserveAspectRatio="xMidYMid meet" version="1.2">
  <defs>
    <clipPath id="33135c00aa">
      <path d="M 21.152344 21.152344 L 354 21.152344 L 354 354 L 21.152344 354 Z M 21.152344 21.152344 "/>
    </clipPath>
  </defs>
  <g id="6c116d691a">
    <g clip-rule="nonzero" clip-path="url(#33135c00aa)">
      <path style=" stroke:none;fill-rule:nonzero;fill:#F7F6FD;fill-opacity:1;"
            d="M 170.8125 129.808594 L 170.8125 151.070312 L 67.175781 151.070312 L 67.175781 129.808594 Z M 255.484375 118.410156 C 216.550781 118.410156 184.972656 149.972656 184.972656 188.917969 C 184.972656 227.867188 216.535156 259.429688 255.484375 259.429688 C 261.851562 259.429688 268.023438 258.582031 273.886719 257.003906 L 273.886719 233.980469 C 268.207031 236.304688 261.992188 237.589844 255.484375 237.589844 C 228.613281 237.589844 206.828125 215.804688 206.828125 188.933594 C 206.828125 162.0625 228.613281 140.277344 255.484375 140.277344 C 271.492188 140.277344 285.695312 148.011719 294.558594 159.933594 L 310.113281 144.363281 C 297.191406 128.527344 277.523438 118.410156 255.484375 118.410156 Z M 21.152344 21.152344 L 21.152344 353.765625 L 88.4375 353.765625 L 88.4375 207.574219 L 170.8125 207.574219 L 170.8125 186.296875 L 67.175781 186.296875 L 67.175781 330.671875 L 44.25 330.671875 L 44.25 44.25 L 330.6875 44.25 L 330.6875 330.6875 L 129.144531 330.6875 L 129.144531 353.78125 L 353.765625 353.78125 L 353.765625 21.152344 Z M 316.425781 256.046875 L 316.425781 188.917969 L 249 188.917969 L 249 210.179688 L 295.148438 210.179688 L 295.148438 256.046875 Z M 316.425781 256.046875 "/>
    </g>
  </g>
</svg>
